<svg xmlns="http://www.w3.org/2000/svg" width="256" height="256" viewBox="0 0 100 100">
  <rect width="100" height="100" rx="0" fill="#0099f5"></rect>
  <path d="M49.74 44.75L47.85 55.38L23.33 55.38L18.75 81.53L5.88 81.53L17.00 17.54L57.51 17.54L55.63 28.22L28.03 28.22L25.13 44.75L49.74 44.75ZM73.69 61.84L81.25 17.54L94.12 17.54L86.61 61.84Q85.82 67.90 82.56 72.69Q79.31 77.48 74.21 80.03Q69.12 82.58 63.01 82.45L63.01 82.45Q53.96 82.27 49.03 77.09Q44.11 71.90 44.38 62.59L44.38 62.59L57.34 62.63Q56.68 71.68 63.71 71.82L63.71 71.82Q67.53 71.95 70.21 69.27Q72.90 66.59 73.69 61.84L73.69 61.84Z" fill="#fff"></path>
</svg>
